<svg width="129" height="129" viewBox="0 0 129 129" fill="none" xmlns="http://www.w3.org/2000/svg">
<path d="M0 12.4289V96.2789H129V12.4289H0ZM122.55 89.8295H6.44947V18.8788H122.549V89.8295H122.55Z" fill="#F1F1FF"/>
<path d="M66.1516 64.9635L55.0897 67.1762V76.9935L66.1516 79.1998C66.5192 80.302 66.938 81.3608 67.4543 82.3724L64.6423 86.5909H111.005L108.187 82.3724C108.716 81.3596 109.128 80.3085 109.496 79.1998L120.545 76.9935L120.558 67.1762L109.483 64.9635C109.122 63.8612 108.702 62.8024 108.187 61.7839L114.436 52.4118L107.495 45.459L98.1103 51.7084C97.1173 51.2054 96.0203 50.8826 94.9624 50.515L92.7179 39.3437H82.9071L80.6627 50.515C79.5921 50.8891 78.5081 51.205 77.5148 51.7084L68.1305 45.459L61.1842 52.4053L67.4336 61.7839C66.9314 62.8037 66.5122 63.8612 66.1516 64.9635ZM87.8233 60.6239C94.1504 60.6239 99.2788 65.7576 99.2788 72.0851C99.2788 78.4126 94.1516 83.5463 87.8233 83.5463C81.4962 83.5463 76.3621 78.4126 76.3621 72.0851C76.3613 65.7576 81.4954 60.6239 87.8233 60.6239Z" fill="#F1F1FF"/>
<path d="M27.3869 53.2315L28.6514 57.9729L34.2885 57.6118C34.6044 58.1018 34.9468 58.56 35.3208 58.9788L33.5216 64.313L37.7718 66.7639L41.4938 62.539C42.0354 62.6483 42.6095 62.6614 43.1706 62.6996L45.6993 67.8085L50.4406 66.544L50.0731 60.8556C50.5313 60.5397 51.0212 60.2433 51.44 59.8757L56.7807 61.6684L59.2317 57.4248L55.0002 53.7028C55.1226 53.1482 55.1873 52.5871 55.2137 51.9934L60.2645 49.4977L59.0068 44.7564L53.3698 45.1239C53.0538 44.6275 52.7115 44.1757 52.3317 43.7435L54.1374 38.4093L49.8872 35.9584L46.1652 40.1898C45.6236 40.0805 45.0495 40.061 44.4884 40.0292L41.9598 34.9203L37.2184 36.1848L37.586 41.8732C37.1213 42.1891 36.6378 42.4855 36.219 42.8531L30.8783 41.0539L28.4274 45.304L32.6588 49.0261C32.5364 49.5807 32.4718 50.1483 32.4454 50.7354L27.3869 53.2315ZM42.3444 45.8269C45.4012 45.0076 48.5426 46.8268 49.3619 49.8779C50.1812 52.9282 48.369 56.0761 45.3118 56.8954C42.255 57.7147 39.1136 55.8955 38.2943 52.8444C37.4754 49.7925 39.2864 46.6462 42.3444 45.8269Z" fill="#F1F1FF"/>
<path d="M45.15 103.671L32.2494 116.571H96.7494L83.8501 103.671H45.15Z" fill="#F1F1FF"/>
</svg>
