<svg width="17" height="20" viewBox="0 0 17 20" fill="none" xmlns="http://www.w3.org/2000/svg">
<path d="M8.85784 0.357941C3.64249 0.357941 0.868896 3.70005 0.868896 7.34425C0.868896 9.03433 1.81325 11.1419 3.32493 11.8103C3.55447 11.9138 3.67936 11.8698 3.7305 11.6569C3.7757 11.4951 3.97432 10.7161 4.07066 10.3486C4.10039 10.2308 4.08493 10.1285 3.98978 10.0179C3.48787 9.43753 3.08943 8.38018 3.08943 7.38826C3.08943 4.84659 5.11016 2.37867 8.5486 2.37867C11.522 2.37867 13.6022 4.31019 13.6022 7.07308C13.6022 10.1952 11.9502 12.355 9.80338 12.355C8.61521 12.355 7.73032 11.4226 8.01101 10.2689C8.34998 8.89518 9.01483 7.41799 9.01483 6.42725C9.01483 5.5388 8.51292 4.80377 7.48769 4.80377C6.27811 4.80377 5.29689 6.00146 5.29689 7.60948C5.29689 8.63114 5.65845 9.32097 5.65845 9.32097C5.65845 9.32097 4.46196 14.1545 4.23955 15.0573C3.86371 16.5856 4.29069 19.0607 4.32756 19.2735C4.35016 19.3913 4.48218 19.4282 4.55592 19.3318C4.67366 19.1772 6.11993 17.1137 6.5255 15.6222C6.67298 15.0787 7.27837 12.8748 7.27837 12.8748C7.6768 13.5943 8.82691 14.1974 10.052 14.1974C13.6962 14.1974 16.3294 10.9944 16.3294 7.01955C16.3163 3.20884 13.0551 0.357941 8.85784 0.357941Z" fill="#474343"/>
</svg>
