<svg width="17" height="17" viewBox="0 0 17 17" fill="none" xmlns="http://www.w3.org/2000/svg">
<g clip-path="url(#clip0)">
<path d="M11.8038 0.552246H5.65107C2.81979 0.552246 0.523804 2.84824 0.523804 5.67951V11.8322C0.523804 14.6635 2.81979 16.9595 5.65107 16.9595H11.8038C14.6351 16.9595 16.9311 14.6635 16.9311 11.8322V5.67951C16.9311 2.84824 14.6351 0.552246 11.8038 0.552246ZM15.3929 11.8322C15.3929 13.8114 13.7829 15.4213 11.8038 15.4213H5.65107C3.67195 15.4213 2.06198 13.8114 2.06198 11.8322V5.67951C2.06198 3.70039 3.67195 2.09043 5.65107 2.09043H11.8038C13.7829 2.09043 15.3929 3.70039 15.3929 5.67951V11.8322Z" fill="#474343"/>
<path d="M8.72742 4.65405C6.4622 4.65405 4.62561 6.49064 4.62561 8.75587C4.62561 11.0211 6.4622 12.8577 8.72742 12.8577C10.9927 12.8577 12.8292 11.0211 12.8292 8.75587C12.8292 6.49064 10.9927 4.65405 8.72742 4.65405ZM8.72742 11.3195C7.31435 11.3195 6.16379 10.1689 6.16379 8.75587C6.16379 7.34177 7.31435 6.19223 8.72742 6.19223C10.1405 6.19223 11.2911 7.34177 11.2911 8.75587C11.2911 10.1689 10.1405 11.3195 8.72742 11.3195Z" fill="#474343"/>
<path d="M13.1369 4.89303C13.4388 4.89303 13.6835 4.64832 13.6835 4.34646C13.6835 4.0446 13.4388 3.7999 13.1369 3.7999C12.835 3.7999 12.5903 4.0446 12.5903 4.34646C12.5903 4.64832 12.835 4.89303 13.1369 4.89303Z" fill="#474343"/>
</g>
<defs>
<clipPath id="clip0">
<rect x="0.523804" y="0.552246" width="16.4073" height="16.4073" fill="white"/>
</clipPath>
</defs>
</svg>
