<svg width="20" height="19" viewBox="0 0 20 19" fill="none" xmlns="http://www.w3.org/2000/svg">
<g clip-path="url(#clip0)">
<path d="M4.95466 5.92484H0.714844V18.9595H4.95466V5.92484Z" fill="#474343"/>
<path d="M16.5033 6.0777C16.4583 6.06348 16.4156 6.04807 16.3682 6.03504C16.3114 6.022 16.2545 6.01134 16.1964 6.00186C15.9713 5.95683 15.7248 5.92484 15.4357 5.92484C12.9638 5.92484 11.3961 7.72243 10.8795 8.41682V5.92484H6.63965V18.9595H10.8795V11.8497C10.8795 11.8497 14.0836 7.38709 15.4357 10.6647C15.4357 13.5904 15.4357 18.9595 15.4357 18.9595H19.6743V10.1635C19.6743 8.19405 18.3246 6.55287 16.5033 6.0777Z" fill="#474343"/>
<path d="M2.78854 4.14739C3.93381 4.14739 4.86223 3.21896 4.86223 2.07369C4.86223 0.928425 3.93381 0 2.78854 0C1.64327 0 0.714844 0.928425 0.714844 2.07369C0.714844 3.21896 1.64327 4.14739 2.78854 4.14739Z" fill="#474343"/>
</g>
<defs>
<clipPath id="clip0">
<rect x="0.714844" width="18.9595" height="18.9595" fill="white"/>
</clipPath>
</defs>
</svg>
