<svg width="20" height="20" viewBox="0 0 20 20" fill="none" xmlns="http://www.w3.org/2000/svg">
<g clip-path="url(#clip0)">
<path d="M19.297 4.42413C18.592 4.73341 17.8407 4.93841 17.0574 5.03794C17.8632 4.55685 18.4782 3.80084 18.7673 2.8896C18.0161 3.33751 17.1866 3.6539 16.3026 3.83046C15.5893 3.0709 14.5725 2.60046 13.4634 2.60046C11.3115 2.60046 9.57909 4.34711 9.57909 6.48835C9.57909 6.79644 9.60516 7.09268 9.66915 7.3747C6.43774 7.2171 3.57841 5.66835 1.65758 3.30908C1.32223 3.89089 1.12553 4.55685 1.12553 5.27375C1.12553 6.61988 1.81874 7.81314 2.85203 8.50398C2.22755 8.49213 1.61492 8.31083 1.0959 8.02525C1.0959 8.0371 1.0959 8.0525 1.0959 8.06791C1.0959 9.95675 2.44321 11.5256 4.21 11.8871C3.89361 11.9736 3.54879 12.015 3.19093 12.015C2.94209 12.015 2.69087 12.0008 2.45506 11.9487C2.95867 13.488 4.38775 14.6196 6.08699 14.6563C4.76457 15.6908 3.08547 16.3141 1.26772 16.3141C0.948968 16.3141 0.643246 16.2999 0.337524 16.2608C2.05928 17.3711 4.0998 18.0051 6.30029 18.0051C13.4528 18.0051 17.3632 12.0802 17.3632 6.94456C17.3632 6.77274 17.3572 6.60684 17.3489 6.44213C18.1203 5.89468 18.7685 5.21095 19.297 4.42413Z" fill="#474343"/>
</g>
<defs>
<clipPath id="clip0">
<rect x="0.337524" y="0.823029" width="18.9595" height="18.9595" fill="white"/>
</clipPath>
</defs>
</svg>
